<svg width="405" height="110" viewBox="0 0 405 110" fill="none" xmlns="http://www.w3.org/2000/svg">
<path fill-rule="evenodd" clip-rule="evenodd" d="M91 25.9688C91 25.3789 90.7355 24.8202 90.2794 24.4462C89.8233 24.0723 89.2235 23.9226 88.6451 24.0382L69.3438 27.8985L50.0424 24.0382C49.7875 23.9873 49.525 23.9873 49.2701 24.0382L29.5826 27.9757C28.6624 28.1598 28 28.9678 28 29.9063V85.0313C28 85.6211 28.2644 86.1798 28.7206 86.5538C29.1767 86.9277 29.7765 87.0775 30.3549 86.9618L49.6562 83.1015L68.9576 86.9618C69.2125 87.0128 69.475 87.0128 69.7299 86.9618L89.4174 83.0243C90.3376 82.8402 91 82.0322 91 81.0938V25.9688ZM49.1562 80.6838V26.5786L49.6562 26.4786L50.1562 26.5786V80.6838L49.7543 80.6034C49.6896 80.5905 49.6229 80.5905 49.5582 80.6034L49.1562 80.6838ZM68.8438 84.4213V30.3161L69.2457 30.3965C69.3104 30.4094 69.3771 30.4094 69.4418 30.3965L69.8438 30.3161V84.4213L69.3438 84.5213L68.8438 84.4213Z" fill="#C96567"/>
<path d="M119.963 78V45.2727H127.335V50.8338H127.719C128.401 48.9588 129.53 47.4957 131.107 46.4446C132.683 45.3793 134.565 44.8466 136.753 44.8466C138.969 44.8466 140.837 45.3864 142.357 46.4659C143.891 47.5312 144.97 48.9872 145.595 50.8338H145.936C146.661 49.0156 147.882 47.5668 149.601 46.4872C151.334 45.3935 153.386 44.8466 155.759 44.8466C158.77 44.8466 161.227 45.7983 163.131 47.7017C165.034 49.6051 165.986 52.3821 165.986 56.0327V78H158.251V57.2259C158.251 55.1946 157.712 53.7102 156.632 52.7727C155.553 51.821 154.232 51.3452 152.669 51.3452C150.808 51.3452 149.352 51.9276 148.301 53.0923C147.264 54.2429 146.746 55.7415 146.746 57.5881V78H139.182V56.9062C139.182 55.2159 138.67 53.8665 137.648 52.858C136.639 51.8494 135.318 51.3452 133.685 51.3452C132.577 51.3452 131.568 51.6293 130.659 52.1974C129.75 52.7514 129.026 53.5398 128.486 54.5625C127.946 55.571 127.676 56.75 127.676 58.0994V78H119.963ZM194.67 64.2358V45.2727H202.383V78H194.904V72.1832H194.564C193.825 74.0156 192.61 75.5142 190.92 76.679C189.244 77.8437 187.177 78.4261 184.72 78.4261C182.575 78.4261 180.679 77.9503 179.031 76.9986C177.397 76.0327 176.119 74.6335 175.196 72.8011C174.272 70.9545 173.811 68.7244 173.811 66.1108V45.2727H181.524V64.9176C181.524 66.9915 182.092 68.6392 183.228 69.8608C184.365 71.0824 185.856 71.6932 187.703 71.6932C188.839 71.6932 189.94 71.4162 191.005 70.8622C192.071 70.3082 192.944 69.4844 193.626 68.3906C194.322 67.2827 194.67 65.8977 194.67 64.2358ZM218.028 58.8239V78H210.315V45.2727H217.687V50.8338H218.07C218.823 49.0014 220.023 47.5455 221.671 46.4659C223.333 45.3864 225.386 44.8466 227.829 44.8466C230.087 44.8466 232.055 45.3295 233.731 46.2955C235.421 47.2614 236.728 48.6605 237.651 50.4929C238.589 52.3253 239.05 54.5483 239.036 57.1619V78H231.323V58.3551C231.323 56.1676 230.755 54.456 229.619 53.2202C228.496 51.9844 226.941 51.3665 224.952 51.3665C223.603 51.3665 222.403 51.6648 221.352 52.2614C220.315 52.8437 219.498 53.6889 218.901 54.7969C218.319 55.9048 218.028 57.2472 218.028 58.8239ZM259.022 78.5753C256.451 78.5753 254.15 77.9148 252.119 76.5938C250.087 75.2727 248.482 73.3551 247.303 70.8409C246.124 68.3267 245.535 65.2727 245.535 61.679C245.535 58.0426 246.131 54.9744 247.325 52.4744C248.532 49.9602 250.158 48.0639 252.204 46.7855C254.249 45.4929 256.529 44.8466 259.043 44.8466C260.961 44.8466 262.538 45.1733 263.773 45.8267C265.009 46.4659 265.989 47.2401 266.714 48.1491C267.438 49.044 267.999 49.8892 268.397 50.6847H268.717V34.3636H276.451V78H268.866V72.8438H268.397C267.999 73.6392 267.424 74.4844 266.671 75.3793C265.918 76.2599 264.924 77.0128 263.688 77.6378C262.452 78.2628 260.897 78.5753 259.022 78.5753ZM261.174 72.2472C262.808 72.2472 264.2 71.8068 265.35 70.9261C266.501 70.0312 267.374 68.7884 267.971 67.1974C268.567 65.6065 268.866 63.7528 268.866 61.6364C268.866 59.5199 268.567 57.6804 267.971 56.1179C267.388 54.5554 266.522 53.3409 265.371 52.4744C264.235 51.608 262.836 51.1747 261.174 51.1747C259.455 51.1747 258.021 51.6222 256.87 52.517C255.719 53.4119 254.853 54.6477 254.271 56.2244C253.688 57.8011 253.397 59.6051 253.397 61.6364C253.397 63.6818 253.688 65.5071 254.271 67.1122C254.867 68.7031 255.741 69.9602 256.891 70.8835C258.056 71.7926 259.484 72.2472 261.174 72.2472ZM284.67 78V45.2727H292.383V78H284.67ZM288.548 40.6278C287.326 40.6278 286.275 40.223 285.395 39.4134C284.514 38.5895 284.074 37.6023 284.074 36.4517C284.074 35.2869 284.514 34.2997 285.395 33.4901C286.275 32.6662 287.326 32.2543 288.548 32.2543C289.784 32.2543 290.835 32.6662 291.701 33.4901C292.582 34.2997 293.022 35.2869 293.022 36.4517C293.022 37.6023 292.582 38.5895 291.701 39.4134C290.835 40.223 289.784 40.6278 288.548 40.6278ZM305.066 78.4688C303.773 78.4688 302.665 78.0142 301.742 77.1051C300.819 76.196 300.364 75.0881 300.379 73.7812C300.364 72.5028 300.819 71.4091 301.742 70.5C302.665 69.5909 303.773 69.1364 305.066 69.1364C306.316 69.1364 307.403 69.5909 308.326 70.5C309.263 71.4091 309.739 72.5028 309.754 73.7812C309.739 74.6477 309.512 75.4361 309.072 76.1463C308.646 76.8565 308.077 77.4247 307.367 77.8509C306.671 78.2628 305.904 78.4688 305.066 78.4688ZM317.717 90.2727V45.2727H325.302V50.6847H325.75C326.147 49.8892 326.708 49.044 327.433 48.1491C328.157 47.2401 329.137 46.4659 330.373 45.8267C331.609 45.1733 333.186 44.8466 335.103 44.8466C337.632 44.8466 339.912 45.4929 341.943 46.7855C343.988 48.0639 345.608 49.9602 346.801 52.4744C348.008 54.9744 348.612 58.0426 348.612 61.679C348.612 65.2727 348.022 68.3267 346.843 70.8409C345.664 73.3551 344.059 75.2727 342.028 76.5938C339.997 77.9148 337.696 78.5753 335.125 78.5753C333.25 78.5753 331.694 78.2628 330.458 77.6378C329.223 77.0128 328.228 76.2599 327.475 75.3793C326.737 74.4844 326.162 73.6392 325.75 72.8438H325.43V90.2727H317.717ZM325.281 61.6364C325.281 63.7528 325.579 65.6065 326.176 67.1974C326.787 68.7884 327.66 70.0312 328.797 70.9261C329.947 71.8068 331.339 72.2472 332.973 72.2472C334.677 72.2472 336.105 71.7926 337.255 70.8835C338.406 69.9602 339.272 68.7031 339.855 67.1122C340.451 65.5071 340.75 63.6818 340.75 61.6364C340.75 59.6051 340.458 57.8011 339.876 56.2244C339.294 54.6477 338.427 53.4119 337.277 52.517C336.126 51.6222 334.691 51.1747 332.973 51.1747C331.325 51.1747 329.926 51.608 328.775 52.4744C327.625 53.3409 326.751 54.5554 326.154 56.1179C325.572 57.6804 325.281 59.5199 325.281 61.6364ZM358.898 90.2727C357.847 90.2727 356.874 90.1875 355.979 90.017C355.098 89.8608 354.395 89.6761 353.869 89.4631L355.659 83.4545C356.781 83.7813 357.783 83.9375 358.663 83.9233C359.544 83.9091 360.318 83.6321 360.986 83.0923C361.668 82.5668 362.243 81.6861 362.712 80.4503L363.372 78.6818L351.504 45.2727H359.686L367.229 69.9886H367.57L375.134 45.2727H383.337L370.233 81.9631C369.622 83.696 368.813 85.1804 367.804 86.4162C366.795 87.6662 365.56 88.6179 364.097 89.2713C362.648 89.9389 360.915 90.2727 358.898 90.2727Z" fill="#97A9BD"/>
</svg>
