<svg width="1823" height="353" viewBox="0 0 1823 353" fill="none" xmlns="http://www.w3.org/2000/svg">
<path d="M0.823863 275V13.1818H101.051C119.972 13.1818 135.696 16.1648 148.224 22.1307C160.838 28.0114 170.256 36.0653 176.477 46.2926C182.784 56.5199 185.938 68.1108 185.938 81.0653C185.938 91.7188 183.892 100.838 179.801 108.423C175.71 115.923 170.213 122.017 163.31 126.705C156.406 131.392 148.693 134.759 140.17 136.804V139.361C149.46 139.872 158.366 142.727 166.889 147.926C175.497 153.04 182.528 160.284 187.983 169.659C193.438 179.034 196.165 190.369 196.165 203.665C196.165 217.216 192.884 229.403 186.321 240.227C179.759 250.966 169.872 259.446 156.662 265.668C143.452 271.889 126.832 275 106.804 275H0.823863ZM48.2528 235.369H99.2614C116.477 235.369 128.878 232.088 136.463 225.526C144.134 218.878 147.969 210.355 147.969 199.957C147.969 192.202 146.051 185.213 142.216 178.991C138.381 172.685 132.926 167.741 125.852 164.162C118.778 160.497 110.341 158.665 100.54 158.665H48.2528V235.369ZM48.2528 124.531H95.1705C103.352 124.531 110.724 123.04 117.287 120.057C123.849 116.989 129.006 112.685 132.756 107.145C136.591 101.52 138.509 94.8722 138.509 87.2017C138.509 77.0596 134.929 68.7074 127.77 62.1449C120.696 55.5824 110.17 52.3011 96.1932 52.3011H48.2528V124.531ZM342.536 192.415V78.6364H388.815V275H343.942V240.099H341.897C337.465 251.094 330.178 260.085 320.036 267.074C309.979 274.062 297.579 277.557 282.835 277.557C269.965 277.557 258.587 274.702 248.701 268.991C238.9 263.196 231.229 254.801 225.69 243.807C220.15 232.727 217.38 219.347 217.38 203.665V78.6364H263.658V196.506C263.658 208.949 267.067 218.835 273.886 226.165C280.704 233.494 289.653 237.159 300.732 237.159C307.55 237.159 314.156 235.497 320.548 232.173C326.94 228.849 332.181 223.906 336.272 217.344C340.448 210.696 342.536 202.386 342.536 192.415ZM464.682 159.943V275H418.403V78.6364H462.636V112.003H464.938C469.455 101.009 476.656 92.2727 486.543 85.7955C496.514 79.3182 508.83 76.0795 523.489 76.0795C537.04 76.0795 548.844 78.9773 558.901 84.7727C569.043 90.5682 576.884 98.9631 582.423 109.957C588.048 120.952 590.818 134.29 590.733 149.972V275H544.455V157.131C544.455 144.006 541.045 133.736 534.227 126.321C527.494 118.906 518.162 115.199 506.23 115.199C498.134 115.199 490.932 116.989 484.625 120.568C478.403 124.062 473.503 129.134 469.923 135.781C466.429 142.429 464.682 150.483 464.682 159.943ZM717.832 78.6364V114.432H604.949V78.6364H717.832ZM632.818 31.5909H679.097V215.938C679.097 222.159 680.034 226.932 681.909 230.256C683.869 233.494 686.426 235.71 689.58 236.903C692.733 238.097 696.227 238.693 700.062 238.693C702.96 238.693 705.602 238.48 707.989 238.054C710.46 237.628 712.335 237.244 713.614 236.903L721.412 273.082C718.94 273.935 715.403 274.872 710.801 275.895C706.284 276.918 700.744 277.514 694.182 277.685C682.591 278.026 672.151 276.278 662.861 272.443C653.571 268.523 646.199 262.472 640.744 254.29C635.375 246.108 632.733 235.881 632.818 223.608V31.5909ZM738.536 275V78.6364H784.815V275H738.536ZM761.803 50.767C754.474 50.767 748.167 48.3381 742.883 43.4801C737.599 38.5369 734.957 32.6136 734.957 25.7102C734.957 18.7216 737.599 12.7983 742.883 7.94032C748.167 2.99715 754.474 0.52556 761.803 0.52556C769.218 0.52556 775.525 2.99715 780.724 7.94032C786.008 12.7983 788.65 18.7216 788.65 25.7102C788.65 32.6136 786.008 38.5369 780.724 43.4801C775.525 48.3381 769.218 50.767 761.803 50.767ZM860.682 159.943V275H814.403V78.6364H858.636V112.003H860.938C865.455 101.009 872.656 92.2727 882.543 85.7955C892.514 79.3182 904.83 76.0795 919.489 76.0795C933.04 76.0795 944.844 78.9773 954.901 84.7727C965.043 90.5682 972.884 98.9631 978.423 109.957C984.048 120.952 986.818 134.29 986.733 149.972V275H940.455V157.131C940.455 144.006 937.045 133.736 930.227 126.321C923.494 118.906 914.162 115.199 902.23 115.199C894.134 115.199 886.932 116.989 880.625 120.568C874.403 124.062 869.503 129.134 865.923 135.781C862.429 142.429 860.682 150.483 860.682 159.943ZM1101.18 352.727C1084.56 352.727 1070.28 350.469 1058.35 345.952C1046.42 341.52 1036.83 335.554 1029.59 328.054C1022.34 320.554 1017.31 312.244 1014.5 303.125L1056.18 293.026C1058.05 296.861 1060.78 300.653 1064.36 304.403C1067.94 308.239 1072.75 311.392 1078.8 313.864C1084.94 316.42 1092.65 317.699 1101.94 317.699C1115.07 317.699 1125.93 314.503 1134.54 308.111C1143.15 301.804 1147.45 291.406 1147.45 276.918V239.716H1145.15C1142.77 244.489 1139.27 249.389 1134.67 254.418C1130.15 259.446 1124.14 263.665 1116.64 267.074C1109.23 270.483 1099.9 272.188 1088.65 272.188C1073.56 272.188 1059.88 268.651 1047.61 261.577C1035.42 254.418 1025.71 243.764 1018.46 229.616C1011.3 215.384 1007.72 197.571 1007.72 176.179C1007.72 154.616 1011.3 136.42 1018.46 121.591C1025.71 106.676 1035.47 95.3835 1047.74 87.7131C1060.01 79.9574 1073.69 76.0795 1088.78 76.0795C1100.28 76.0795 1109.74 78.0398 1117.16 81.9602C1124.66 85.7954 1130.62 90.4403 1135.05 95.8949C1139.49 101.264 1142.85 106.335 1145.15 111.108H1147.71V78.6364H1193.35V278.196C1193.35 294.986 1189.34 308.878 1181.33 319.872C1173.32 330.866 1162.37 339.091 1148.48 344.545C1134.59 350 1118.82 352.727 1101.18 352.727ZM1101.56 235.881C1111.36 235.881 1119.71 233.494 1126.62 228.722C1133.52 223.949 1138.76 217.088 1142.34 208.139C1145.92 199.19 1147.71 188.452 1147.71 175.923C1147.71 163.565 1145.92 152.741 1142.34 143.452C1138.85 134.162 1133.65 126.96 1126.74 121.847C1119.93 116.648 1111.53 114.048 1101.56 114.048C1091.25 114.048 1082.64 116.733 1075.74 122.102C1068.83 127.472 1063.63 134.844 1060.14 144.219C1056.64 153.509 1054.9 164.077 1054.9 175.923C1054.9 187.94 1056.64 198.466 1060.14 207.5C1063.72 216.449 1068.96 223.437 1075.86 228.466C1082.85 233.409 1091.42 235.881 1101.56 235.881ZM1471.52 96.7898C1469.39 89.8864 1466.45 83.7074 1462.7 78.2528C1459.03 72.7131 1454.6 67.9829 1449.4 64.0625C1444.29 60.142 1438.41 57.2017 1431.76 55.2415C1425.11 53.196 1417.87 52.1733 1410.03 52.1733C1395.96 52.1733 1383.44 55.7102 1372.44 62.7841C1361.45 69.8579 1352.8 80.2557 1346.49 93.9773C1340.27 107.614 1337.16 124.233 1337.16 143.835C1337.16 163.608 1340.27 180.355 1346.49 194.077C1352.71 207.798 1361.36 218.239 1372.44 225.398C1383.52 232.472 1396.39 236.009 1411.05 236.009C1424.35 236.009 1435.85 233.452 1445.57 228.338C1455.37 223.224 1462.91 215.98 1468.19 206.605C1473.48 197.145 1476.12 186.065 1476.12 173.366L1486.86 175.028H1415.78V137.955H1522.02V169.403C1522.02 191.818 1517.24 211.207 1507.7 227.571C1498.15 243.935 1485.03 256.548 1468.32 265.412C1451.62 274.19 1432.44 278.58 1410.79 278.58C1386.67 278.58 1365.5 273.168 1347.26 262.344C1329.1 251.435 1314.91 235.966 1304.69 215.938C1294.54 195.824 1289.47 171.96 1289.47 144.347C1289.47 123.21 1292.46 104.332 1298.42 87.7131C1304.47 71.0938 1312.91 56.9886 1323.73 45.3977C1334.56 33.7216 1347.26 24.8579 1361.83 18.8068C1376.4 12.6704 1392.26 9.60226 1409.39 9.60226C1423.88 9.60226 1437.38 11.7329 1449.91 15.9943C1462.44 20.1704 1473.56 26.1364 1483.28 33.892C1493.08 41.6477 1501.13 50.8523 1507.44 61.5057C1513.75 72.1591 1517.88 83.9205 1519.84 96.7898H1471.52ZM1597.31 13.1818V275H1549.88V13.1818H1597.31ZM1772.95 85.1562C1771.76 73.9915 1766.73 65.2983 1757.87 59.0767C1749.09 52.8551 1737.67 49.7443 1723.61 49.7443C1713.72 49.7443 1705.24 51.2358 1698.17 54.2188C1691.09 57.2017 1685.68 61.25 1681.93 66.3636C1678.18 71.4773 1676.26 77.3153 1676.18 83.8778C1676.18 89.3324 1677.41 94.0625 1679.89 98.0682C1682.44 102.074 1685.89 105.483 1690.24 108.295C1694.59 111.023 1699.4 113.324 1704.69 115.199C1709.97 117.074 1715.3 118.651 1720.67 119.929L1745.21 126.065C1755.1 128.366 1764.6 131.477 1773.72 135.398C1782.93 139.318 1791.15 144.261 1798.39 150.227C1805.72 156.193 1811.52 163.395 1815.78 171.832C1820.04 180.27 1822.17 190.156 1822.17 201.491C1822.17 216.832 1818.25 230.341 1810.41 242.017C1802.57 253.608 1791.24 262.685 1776.41 269.247C1761.66 275.724 1743.81 278.963 1722.84 278.963C1702.47 278.963 1684.79 275.81 1669.79 269.503C1654.87 263.196 1643.2 253.991 1634.76 241.889C1626.41 229.787 1621.89 215.043 1621.21 197.656H1667.87C1668.55 206.776 1671.36 214.361 1676.31 220.412C1681.25 226.463 1687.68 230.98 1695.61 233.963C1703.62 236.946 1712.57 238.438 1722.46 238.438C1732.77 238.438 1741.8 236.903 1749.56 233.835C1757.4 230.682 1763.54 226.335 1767.97 220.795C1772.4 215.17 1774.66 208.608 1774.74 201.108C1774.66 194.29 1772.66 188.665 1768.74 184.233C1764.82 179.716 1759.32 175.966 1752.24 172.983C1745.26 169.915 1737.07 167.187 1727.7 164.801L1697.91 157.131C1676.35 151.591 1659.3 143.196 1646.78 131.946C1634.33 120.611 1628.11 105.568 1628.11 86.8182C1628.11 71.392 1632.29 57.8835 1640.64 46.2926C1649.08 34.7017 1660.54 25.7102 1675.03 19.3182C1689.52 12.8409 1705.92 9.60226 1724.25 9.60226C1742.83 9.60226 1759.11 12.8409 1773.08 19.3182C1787.14 25.7102 1798.18 34.6165 1806.19 46.0369C1814.2 57.3721 1818.34 70.4119 1818.59 85.1562H1772.95Z" fill="#EAEBF0"/>
</svg>
