<svg width="110" height="110" viewBox="0 0 110 110" fill="none" xmlns="http://www.w3.org/2000/svg">
<rect width="110" height="110" fill="white"/>
<path fill-rule="evenodd" clip-rule="evenodd" d="M86 25.9688C86 25.3789 85.7355 24.8202 85.2794 24.4462C84.8233 24.0723 84.2235 23.9226 83.6451 24.0382L64.3438 27.8985L45.0424 24.0382C44.7875 23.9873 44.525 23.9873 44.2701 24.0382L24.5826 27.9757C23.6624 28.1598 23 28.9678 23 29.9063V85.0313C23 85.6211 23.2644 86.1798 23.7206 86.5538C24.1767 86.9277 24.7765 87.0775 25.3549 86.9618L44.6562 83.1015L63.9576 86.9618C64.2125 87.0128 64.475 87.0128 64.7299 86.9618L84.4174 83.0243C85.3376 82.8402 86 82.0322 86 81.0938V25.9688ZM44.1562 80.6838V26.5786L44.6562 26.4786L45.1562 26.5786V80.6838L44.7543 80.6034C44.6896 80.5905 44.6229 80.5905 44.5582 80.6034L44.1562 80.6838ZM63.8438 84.4213V30.3161L64.2457 30.3965C64.3104 30.4094 64.3771 30.4094 64.4418 30.3965L64.8438 30.3161V84.4213L64.3438 84.5213L63.8438 84.4213Z" fill="#C96567"/>
</svg>
